# xmcd
#
# Track frame offsets:
#       150
#       15454
#       37910
#       49283
#       67431
#       86268
#       95983
#       114801
#       133716
#       149893
#       165704
#       175633
#
# Disc length: 2521 seconds
#
# Revision: 1
# Processed by: cddbd v1.4PL0 Copyright (c) Steve Scherf et al.
# Submitted via: MusiCat 1.1b1
#
DISCID=a709d70c
DTITLE=Lulu Santos - O Último Romântico
DYEAR=1900
DGENRE=
TTITLE0=Lulu santos
TTITLE1=
TTITLE2=
TTITLE3=
TTITLE4=
TTITLE5=
TTITLE6=
TTITLE7=
TTITLE8=
TTITLE9=
TTITLE10=
TTITLE11=
EXTD=0\n\n\n
EXTT0=
EXTT1=
EXTT2=
EXTT3=
EXTT4=
EXTT5=
EXTT6=
EXTT7=
EXTT8=
EXTT9=
EXTT10=
EXTT11=
PLAYORDER=
